<svg xmlns="http://www.w3.org/2000/svg" xmlns:xlink="http://www.w3.org/1999/xlink" width="500" zoomAndPan="magnify" viewBox="0 0 375 374.999991" height="500" preserveAspectRatio="xMidYMid meet" version="1.0"><defs><clipPath id="4eb4364894"><path d="M 112.5 133.226562 L 262.5 133.226562 L 262.5 241.976562 L 112.5 241.976562 Z M 112.5 133.226562 " clip-rule="nonzero"/></clipPath></defs><g clip-path="url(#4eb4364894)"><path fill="#ffffff" d="M 249.523438 133.226562 L 125.476562 133.226562 C 118.34375 133.226562 112.554688 139.027344 112.554688 146.171875 L 112.554688 229.03125 C 112.554688 236.175781 118.34375 241.976562 125.476562 241.976562 L 249.523438 241.976562 C 256.65625 241.976562 262.445312 236.175781 262.445312 229.03125 L 262.445312 146.171875 C 262.445312 139.027344 256.65625 133.226562 249.523438 133.226562 Z M 214.039062 182.476562 L 256.394531 142.625 C 256.9375 143.714844 257.273438 144.90625 257.273438 146.171875 L 257.273438 229.03125 C 257.273438 230.015625 257.066406 230.945312 256.730469 231.828125 Z M 249.523438 138.40625 C 250.632812 138.40625 251.691406 138.640625 252.625 139.078125 L 187.5 200.339844 L 122.375 139.078125 C 123.308594 138.640625 124.367188 138.40625 125.476562 138.40625 Z M 118.269531 231.828125 C 117.929688 230.945312 117.726562 230.015625 117.726562 229.03125 L 117.726562 146.171875 C 117.726562 144.90625 118.0625 143.714844 118.605469 142.652344 L 160.960938 182.5 Z M 125.476562 236.796875 C 124.082031 236.796875 122.816406 236.410156 121.679688 235.761719 L 164.734375 186.023438 L 185.71875 205.777344 C 186.207031 206.246094 186.855469 206.476562 187.472656 206.476562 C 188.09375 206.476562 188.742188 206.246094 189.230469 205.777344 L 210.214844 186.023438 L 253.320312 235.761719 C 252.183594 236.410156 250.917969 236.796875 249.523438 236.796875 Z M 125.476562 236.796875 " fill-opacity="1" fill-rule="nonzero"/></g></svg>